<mxfile host="app.diagrams.net" agent="Mozilla/5.0 (X11; Ubuntu; Linux x86_64; rv:132.0) Gecko/20100101 Firefox/132.0" version="24.8.6">
  <diagram name="Page-1" id="je-kw74RJZGWPr6j5ght">
    <mxGraphModel dx="1274" dy="795" grid="1" gridSize="10" guides="1" tooltips="1" connect="1" arrows="1" fold="1" page="1" pageScale="1" pageWidth="1920" pageHeight="1200" math="0" shadow="0">
      <root>
        <mxCell id="0" />
        <mxCell id="1" parent="0" />
        <mxCell id="IL0aLkrp6EwRMWT_6a9E-10" value="" style="group" vertex="1" connectable="0" parent="1">
          <mxGeometry x="60" y="80" width="300" height="260" as="geometry" />
        </mxCell>
        <mxCell id="IL0aLkrp6EwRMWT_6a9E-1" value="" style="rounded=1;whiteSpace=wrap;html=1;" vertex="1" parent="IL0aLkrp6EwRMWT_6a9E-10">
          <mxGeometry width="300" height="260" as="geometry" />
        </mxCell>
        <mxCell id="IL0aLkrp6EwRMWT_6a9E-4" value="Plate Reader" style="rounded=0;whiteSpace=wrap;html=1;" vertex="1" parent="IL0aLkrp6EwRMWT_6a9E-10">
          <mxGeometry x="20" y="20" width="120" height="60" as="geometry" />
        </mxCell>
        <mxCell id="IL0aLkrp6EwRMWT_6a9E-5" value="Transponder Reader" style="rounded=0;whiteSpace=wrap;html=1;" vertex="1" parent="IL0aLkrp6EwRMWT_6a9E-10">
          <mxGeometry x="20" y="100" width="120" height="60" as="geometry" />
        </mxCell>
        <mxCell id="IL0aLkrp6EwRMWT_6a9E-6" value="Gate Actuator" style="rounded=0;whiteSpace=wrap;html=1;" vertex="1" parent="IL0aLkrp6EwRMWT_6a9E-10">
          <mxGeometry x="160" y="20" width="120" height="60" as="geometry" />
        </mxCell>
        <mxCell id="IL0aLkrp6EwRMWT_6a9E-8" value="Ticket Printer" style="rounded=0;whiteSpace=wrap;html=1;" vertex="1" parent="IL0aLkrp6EwRMWT_6a9E-10">
          <mxGeometry x="160" y="100" width="120" height="60" as="geometry" />
        </mxCell>
        <mxCell id="IL0aLkrp6EwRMWT_6a9E-9" value="Display Screen" style="rounded=0;whiteSpace=wrap;html=1;" vertex="1" parent="IL0aLkrp6EwRMWT_6a9E-10">
          <mxGeometry x="160" y="180" width="120" height="60" as="geometry" />
        </mxCell>
        <mxCell id="IL0aLkrp6EwRMWT_6a9E-27" value="" style="group" vertex="1" connectable="0" parent="1">
          <mxGeometry x="60" y="410" width="300" height="260" as="geometry" />
        </mxCell>
        <mxCell id="IL0aLkrp6EwRMWT_6a9E-19" value="" style="rounded=1;whiteSpace=wrap;html=1;container=0;" vertex="1" parent="IL0aLkrp6EwRMWT_6a9E-27">
          <mxGeometry width="300" height="260" as="geometry" />
        </mxCell>
        <mxCell id="IL0aLkrp6EwRMWT_6a9E-20" value="Plate Reader" style="rounded=0;whiteSpace=wrap;html=1;container=0;" vertex="1" parent="IL0aLkrp6EwRMWT_6a9E-27">
          <mxGeometry x="20" y="20" width="120" height="60" as="geometry" />
        </mxCell>
        <mxCell id="IL0aLkrp6EwRMWT_6a9E-21" value="Transponder Reader" style="rounded=0;whiteSpace=wrap;html=1;container=0;" vertex="1" parent="IL0aLkrp6EwRMWT_6a9E-27">
          <mxGeometry x="20" y="100" width="120" height="60" as="geometry" />
        </mxCell>
        <mxCell id="IL0aLkrp6EwRMWT_6a9E-22" value="Gate Actuator" style="rounded=0;whiteSpace=wrap;html=1;container=0;" vertex="1" parent="IL0aLkrp6EwRMWT_6a9E-27">
          <mxGeometry x="160" y="20" width="120" height="60" as="geometry" />
        </mxCell>
        <mxCell id="IL0aLkrp6EwRMWT_6a9E-24" value="Display Screen" style="rounded=0;whiteSpace=wrap;html=1;container=0;" vertex="1" parent="IL0aLkrp6EwRMWT_6a9E-27">
          <mxGeometry x="160" y="180" width="120" height="60" as="geometry" />
        </mxCell>
        <mxCell id="IL0aLkrp6EwRMWT_6a9E-25" value="QR Reader" style="rounded=0;whiteSpace=wrap;html=1;container=0;" vertex="1" parent="IL0aLkrp6EwRMWT_6a9E-27">
          <mxGeometry x="160" y="100" width="120" height="60" as="geometry" />
        </mxCell>
        <mxCell id="IL0aLkrp6EwRMWT_6a9E-26" value="Payment Card&lt;br&gt;Tap/Reader" style="rounded=0;whiteSpace=wrap;html=1;" vertex="1" parent="IL0aLkrp6EwRMWT_6a9E-27">
          <mxGeometry x="20" y="180" width="120" height="60" as="geometry" />
        </mxCell>
        <mxCell id="IL0aLkrp6EwRMWT_6a9E-28" value="Entry Gate" style="text;strokeColor=none;fillColor=none;html=1;fontSize=24;fontStyle=1;verticalAlign=middle;align=center;" vertex="1" parent="1">
          <mxGeometry x="160" y="40" width="100" height="40" as="geometry" />
        </mxCell>
        <mxCell id="IL0aLkrp6EwRMWT_6a9E-29" value="Exit Gate" style="text;strokeColor=none;fillColor=none;html=1;fontSize=24;fontStyle=1;verticalAlign=middle;align=center;" vertex="1" parent="1">
          <mxGeometry x="160" y="370" width="100" height="40" as="geometry" />
        </mxCell>
        <mxCell id="IL0aLkrp6EwRMWT_6a9E-31" value="&lt;font style=&quot;font-size: 48px;&quot;&gt;Entry System&lt;br&gt;&lt;/font&gt;" style="shape=hexagon;perimeter=hexagonPerimeter2;whiteSpace=wrap;html=1;fixedSize=1;" vertex="1" parent="1">
          <mxGeometry x="550" y="80" width="240" height="260" as="geometry" />
        </mxCell>
        <mxCell id="IL0aLkrp6EwRMWT_6a9E-32" value="&lt;font style=&quot;font-size: 48px;&quot;&gt;Exit System&lt;br&gt;&lt;/font&gt;" style="shape=hexagon;perimeter=hexagonPerimeter2;whiteSpace=wrap;html=1;fixedSize=1;" vertex="1" parent="1">
          <mxGeometry x="550" y="410" width="240" height="260" as="geometry" />
        </mxCell>
        <mxCell id="IL0aLkrp6EwRMWT_6a9E-33" value="" style="endArrow=classic;html=1;rounded=0;exitX=1;exitY=0.5;exitDx=0;exitDy=0;entryX=0;entryY=0.25;entryDx=0;entryDy=0;" edge="1" parent="1" target="IL0aLkrp6EwRMWT_6a9E-31">
          <mxGeometry relative="1" as="geometry">
            <mxPoint x="360" y="150" as="sourcePoint" />
            <mxPoint x="550" y="150" as="targetPoint" />
          </mxGeometry>
        </mxCell>
        <mxCell id="IL0aLkrp6EwRMWT_6a9E-34" value="Label" style="edgeLabel;resizable=0;html=1;;align=center;verticalAlign=middle;" connectable="0" vertex="1" parent="IL0aLkrp6EwRMWT_6a9E-33">
          <mxGeometry relative="1" as="geometry" />
        </mxCell>
        <mxCell id="IL0aLkrp6EwRMWT_6a9E-35" value="Plate/Transponder" style="edgeLabel;html=1;align=center;verticalAlign=middle;resizable=0;points=[];" vertex="1" connectable="0" parent="IL0aLkrp6EwRMWT_6a9E-33">
          <mxGeometry y="2" relative="1" as="geometry">
            <mxPoint as="offset" />
          </mxGeometry>
        </mxCell>
      </root>
    </mxGraphModel>
  </diagram>
</mxfile>
